<svg xmlns="http://www.w3.org/2000/svg" width="1024" height="1024" viewBox="0 0 1024 1024">
<g>
<path d="M 520.77 764.61 C515.97,767.02 511.69,768.97 511.27,768.93 C509.86,768.79 485.67,755.56 474.50,748.81 C462.50,741.57 439.30,725.67 429.00,717.64 C377.95,677.84 334.48,627.91 305.85,576.15 C275.11,520.60 257.58,461.99 250.02,389.50 C247.72,367.44 246.30,311.55 247.64,295.73 L 248.28 288.15 L 282.89 276.64 C338.26,258.23 467.98,218.13 506.67,207.48 L 512.83 205.78 L 527.17 209.99 C589.56,228.32 690.89,260.09 757.50,282.19 L 776.50 288.50 L 776.81 313.00 C777.29,350.52 775.25,386.37 770.94,416.22 L 768.96 429.94 L 772.62 434.72 C777.22,440.74 779.65,446.35 781.14,454.45 C784.44,472.34 772.43,492.16 754.81,497.91 C751.44,499.01 750.94,499.68 748.92,505.81 C740.35,531.74 723.93,566.19 707.05,593.62 C674.53,646.46 626.14,696.64 571.50,734.21 C558.32,743.27 532.86,758.53 520.77,764.61 ZM 497.00 557.96 C508.37,559.36 530.87,558.39 543.45,555.97 C583.71,548.19 620.25,526.79 657.32,489.28 L 668.14 478.32 L 656.82 469.95 C620.38,442.98 584.83,422.80 556.74,413.12 C519.64,400.34 490.37,402.37 449.04,420.58 C432.76,427.75 413.62,438.28 396.00,449.75 C382.61,458.47 359.00,476.01 359.00,477.24 C359.00,479.91 389.02,508.17 403.00,518.66 C431.46,540.01 464.98,554.03 497.00,557.96 ZM 537.04 530.68 C527.67,533.09 508.80,534.52 501.50,533.36 C480.49,530.03 462.72,522.68 441.50,508.53 C429.48,500.52 414.00,487.56 414.00,485.51 C414.00,483.84 422.00,472.98 427.80,466.79 C430.28,464.13 435.28,459.77 438.91,457.10 C445.96,451.91 457.00,445.40 457.00,446.44 C457.00,446.78 456.34,448.65 455.53,450.58 C452.68,457.40 450.81,469.17 451.52,475.89 C452.83,488.43 457.76,500.22 464.93,508.00 L 469.08 512.50 L 466.11 507.00 C461.55,498.53 459.67,490.71 459.72,480.50 C459.78,468.83 462.38,460.62 468.99,451.20 C479.30,436.53 494.21,429.00 512.98,429.00 C531.91,429.00 546.67,436.76 556.92,452.12 C567.51,467.98 568.30,489.48 558.92,506.92 C557.32,509.90 556.20,512.53 556.43,512.77 C556.67,513.00 558.98,510.34 561.57,506.85 C571.27,493.77 575.27,479.90 573.27,466.20 C572.63,461.84 571.26,455.73 570.21,452.63 C567.85,445.63 568.48,445.52 578.12,451.25 C586.66,456.32 598.16,466.78 604.59,475.32 C612.06,485.22 612.07,485.32 606.93,490.62 C604.49,493.13 598.11,498.50 592.75,502.55 C574.10,516.67 556.06,525.78 537.04,530.68 ZM 715.40 425.25 C715.09,426.76 715.06,428.00 715.32,428.00 C715.82,428.00 731.20,420.89 731.92,420.32 C733.55,419.04 738.00,362.23 738.00,342.64 L 738.00 330.32 L 722.75 323.25 C679.82,303.36 626.19,282.61 579.00,267.65 C552.49,259.24 516.39,249.00 513.26,249.00 C507.61,249.00 439.86,269.46 404.50,281.84 C388.49,287.44 352.91,300.76 352.29,301.38 C351.58,302.08 355.61,317.00 356.51,317.00 C357.07,317.00 367.19,313.37 379.01,308.94 C417.35,294.55 459.07,280.93 498.21,270.02 L 512.92 265.93 L 519.21 267.54 C572.55,281.19 650.43,308.78 702.50,332.45 L 720.50 340.63 L 720.36 358.57 C720.24,374.11 717.03,417.20 715.40,425.25 ZM 447.37 662.80 L 455.24 667.83 L 460.62 661.49 C463.58,658.00 466.00,654.95 466.00,654.70 C466.00,654.46 462.03,651.74 457.18,648.67 C452.33,645.60 443.16,639.12 436.79,634.29 C374.96,587.33 334.89,525.37 316.97,449.00 C311.88,427.35 308.34,406.33 306.44,386.54 C305.60,377.72 304.75,370.03 304.56,369.45 C304.37,368.87 301.58,367.87 298.36,367.24 C295.14,366.60 291.42,365.77 290.10,365.38 L 287.70 364.69 L 288.39 373.59 C294.63,454.24 316.59,521.22 354.10,574.00 C378.05,607.70 412.55,640.54 447.37,662.80 ZM 641.21 371.91 L 651.50 381.89 L 658.00 375.37 L 664.50 368.84 L 654.00 358.86 C605.51,312.75 544.13,293.00 479.21,302.62 C460.25,305.42 439.82,312.04 420.84,321.53 C402.18,330.84 387.82,341.06 367.11,359.76 L 361.72 364.63 L 367.46 370.06 C370.61,373.05 373.86,375.88 374.68,376.35 C375.77,376.97 378.32,375.11 384.33,369.28 C418.45,336.24 463.44,318.08 511.37,318.02 C559.76,317.95 604.86,336.67 641.21,371.91 ZM 613.48 412.75 C614.97,414.54 616.49,416.00 616.86,416.00 C617.24,416.00 621.25,412.27 625.79,407.71 L 634.03 399.43 L 624.77 390.29 C614.06,379.73 612.30,378.26 601.50,370.79 C576.34,353.39 549.57,344.27 518.21,342.39 C492.43,340.85 460.77,348.01 437.00,360.75 C426.61,366.32 413.22,375.43 406.50,381.50 L 401.50 386.02 L 410.35 394.49 L 419.20 402.96 L 424.85 398.09 C439.67,385.31 459.40,375.41 480.78,370.03 C515.66,361.25 555.08,368.65 586.67,389.93 C595.90,396.14 608.88,407.19 613.48,412.75 ZM 560.19 665.22 L 564.03 670.94 L 571.40 666.47 C594.07,652.70 614.94,636.18 635.06,616.06 C662.47,588.65 682.20,561.53 698.75,528.50 C705.20,515.63 714.00,494.97 714.00,492.70 C714.00,491.93 713.14,490.53 712.09,489.58 C710.56,488.20 709.21,487.99 705.34,488.56 C697.76,489.67 696.31,490.53 694.96,494.69 C690.82,507.44 677.15,533.87 665.58,551.50 C639.37,591.41 610.62,619.92 567.25,648.97 C559.57,654.12 555.25,657.61 555.67,658.34 C556.04,658.98 558.08,662.07 560.19,665.22 ZM 500.50 718.67 C506.95,720.79 518.45,719.85 525.52,716.63 C544.96,707.76 551.80,683.91 539.99,666.22 C533.04,655.81 523.60,650.78 511.00,650.75 C500.41,650.72 493.19,653.65 485.92,660.92 C478.16,668.68 475.66,675.41 476.23,687.00 C476.74,697.36 479.45,703.34 486.71,710.13 C492.14,715.21 494.57,716.71 500.50,718.67 ZM 295.36 351.92 C302.55,354.68 313.18,354.65 320.68,351.85 C328.45,348.94 335.94,341.45 338.85,333.68 C343.75,320.57 340.52,306.29 330.58,297.16 C323.32,290.50 318.19,288.58 307.50,288.54 C299.62,288.51 297.86,288.84 293.39,291.20 C283.21,296.56 278.15,302.85 275.33,313.66 C271.41,328.68 280.60,346.24 295.36,351.92 ZM 728.99 480.75 C733.53,483.47 735.39,484.00 740.46,483.98 C751.38,483.94 760.62,477.40 763.51,467.65 C765.41,461.25 765.38,459.41 763.28,452.89 C761.31,446.80 755.99,440.86 750.40,438.52 C745.86,436.63 736.02,436.55 731.65,438.37 C713.65,445.89 712.10,470.62 728.99,480.75 ZM 534.35 636.78 C537.18,638.51 539.78,639.83 540.12,639.71 C541.41,639.27 612.11,566.72 614.69,563.19 C616.17,561.16 618.51,558.26 619.88,556.75 C621.25,555.24 622.11,554.00 621.80,554.00 C621.48,554.00 618.33,555.69 614.78,557.75 C611.24,559.81 605.11,562.85 601.15,564.50 C594.14,567.43 593.15,568.32 561.58,600.57 L 529.19 633.63 ZM 368.02 392.52 L 399.46 423.97 L 408.04 415.55 L 377.27 384.77 C360.36,367.85 346.06,354.02 345.51,354.04 C344.95,354.06 342.72,355.66 340.54,357.58 L 336.58 361.07 ZM 503.00 585.00 L 503.00 631.00 L 516.00 631.00 L 516.00 585.00 ZM 527.33 468.94 C535.12,472.79 542.13,470.59 545.96,463.08 C548.51,458.07 548.52,455.94 545.99,450.98 C543.58,446.26 539.62,443.99 533.80,444.01 C528.32,444.03 525.15,445.66 522.28,449.91 C517.82,456.52 520.18,465.40 527.33,468.94 ZM 671.00 473.09 C674.62,476.30 677.41,477.98 679.14,477.99 C681.41,478.00 702.26,474.17 702.61,473.68 C702.67,473.58 702.24,470.91 701.65,467.75 C700.85,463.51 700.14,462.00 698.92,462.00 C697.27,462.00 672.76,466.43 668.00,467.58 C665.58,468.17 665.67,468.34 671.00,473.09 Z" fill="rgb(15,32,54)"/>
<path d="M 641.21 371.91 C604.86,336.67 559.76,317.95 511.37,318.02 C463.44,318.08 418.45,336.24 384.33,369.28 C378.32,375.11 375.77,376.97 374.68,376.35 C373.86,375.88 370.61,373.05 367.46,370.06 L 361.72 364.63 L 367.11 359.76 C387.82,341.06 402.18,330.84 420.84,321.53 C439.82,312.04 460.25,305.42 479.21,302.62 C544.13,293.00 605.51,312.75 654.00,358.86 L 664.50 368.84 L 658.00 375.37 L 651.50 381.89 ZM 613.48 412.75 C608.88,407.19 595.90,396.14 586.67,389.93 C555.08,368.65 515.66,361.25 480.78,370.03 C459.40,375.41 439.67,385.31 424.85,398.09 L 419.20 402.96 L 410.35 394.49 L 401.50 386.02 L 406.50 381.50 C413.22,375.43 426.61,366.32 437.00,360.75 C460.77,348.01 492.43,340.85 518.21,342.39 C549.57,344.27 576.34,353.39 601.50,370.79 C612.30,378.26 614.06,379.73 624.77,390.29 L 634.03 399.43 L 625.79 407.71 C621.25,412.27 617.24,416.00 616.86,416.00 C616.49,416.00 614.97,414.54 613.48,412.75 ZM 500.50 718.67 C494.57,716.71 492.14,715.21 486.71,710.13 C479.45,703.34 476.74,697.36 476.23,687.00 C475.66,675.41 478.16,668.68 485.92,660.92 C493.19,653.65 500.41,650.72 511.00,650.75 C523.60,650.78 533.04,655.81 539.99,666.22 C551.80,683.91 544.96,707.76 525.52,716.63 C518.45,719.85 506.95,720.79 500.50,718.67 ZM 295.36 351.92 C280.60,346.24 271.41,328.68 275.33,313.66 C278.15,302.85 283.21,296.56 293.39,291.20 C297.86,288.84 299.62,288.51 307.50,288.54 C318.19,288.58 323.32,290.50 330.58,297.16 C340.52,306.29 343.75,320.57 338.85,333.68 C335.94,341.45 328.45,348.94 320.68,351.85 C313.18,354.65 302.55,354.68 295.36,351.92 ZM 728.99 480.75 C712.10,470.62 713.65,445.89 731.65,438.37 C736.02,436.55 745.86,436.63 750.40,438.52 C755.99,440.86 761.31,446.80 763.28,452.89 C765.38,459.41 765.41,461.25 763.51,467.65 C760.62,477.40 751.38,483.94 740.46,483.98 C735.39,484.00 733.53,483.47 728.99,480.75 Z" fill="rgb(35,207,85)"/>
<path d="M 0.00 512.00 L 0.00 0.00 L 512.00 0.00 L 1024.00 0.00 L 1024.00 512.00 L 1024.00 1024.00 L 512.00 1024.00 L 0.00 1024.00 L 0.00 512.00 ZM 520.77 764.61 C532.86,758.53 558.32,743.27 571.50,734.21 C626.14,696.64 674.53,646.46 707.05,593.62 C723.93,566.19 740.35,531.74 748.92,505.81 C750.94,499.68 751.44,499.01 754.81,497.91 C772.43,492.16 784.44,472.34 781.14,454.45 C779.65,446.35 777.22,440.74 772.62,434.72 L 768.96 429.94 L 770.94 416.22 C775.25,386.37 777.29,350.52 776.81,313.00 L 776.50 288.50 L 757.50 282.19 C690.89,260.09 589.56,228.32 527.17,209.99 L 512.83 205.78 L 506.67 207.48 C467.98,218.13 338.26,258.23 282.89,276.64 L 248.28 288.15 L 247.64 295.73 C246.30,311.55 247.72,367.44 250.02,389.50 C257.58,461.99 275.11,520.60 305.85,576.15 C334.48,627.91 377.95,677.84 429.00,717.64 C439.30,725.67 462.50,741.57 474.50,748.81 C485.67,755.56 509.86,768.79 511.27,768.93 C511.69,768.97 515.97,767.02 520.77,764.61 ZM 560.19 665.22 C558.08,662.07 556.04,658.98 555.67,658.34 C555.25,657.61 559.57,654.12 567.25,648.97 C610.62,619.92 639.37,591.41 665.58,551.50 C677.15,533.87 690.82,507.44 694.96,494.69 C696.31,490.53 697.76,489.67 705.34,488.56 C709.21,487.99 710.56,488.20 712.09,489.58 C713.14,490.53 714.00,491.93 714.00,492.70 C714.00,494.97 705.20,515.63 698.75,528.50 C682.20,561.53 662.47,588.65 635.06,616.06 C614.94,636.18 594.07,652.70 571.40,666.47 L 564.03 670.94 L 560.19 665.22 ZM 447.37 662.80 C412.55,640.54 378.05,607.70 354.10,574.00 C316.59,521.22 294.63,454.24 288.39,373.59 L 287.70 364.69 L 290.10 365.38 C291.42,365.77 295.14,366.60 298.36,367.24 C301.58,367.87 304.37,368.87 304.56,369.45 C304.75,370.03 305.60,377.72 306.44,386.54 C308.34,406.33 311.88,427.35 316.97,449.00 C334.89,525.37 374.96,587.33 436.79,634.29 C443.16,639.12 452.33,645.60 457.18,648.67 C462.03,651.74 466.00,654.46 466.00,654.70 C466.00,654.95 463.58,658.00 460.62,661.49 L 455.24 667.83 L 447.37 662.80 ZM 534.35 636.78 L 529.19 633.63 L 561.58 600.57 C593.15,568.32 594.14,567.43 601.15,564.50 C605.11,562.85 611.24,559.81 614.78,557.75 C618.33,555.69 621.48,554.00 621.80,554.00 C622.11,554.00 621.25,555.24 619.88,556.75 C618.51,558.26 616.17,561.16 614.69,563.19 C612.11,566.72 541.41,639.27 540.12,639.71 C539.78,639.83 537.18,638.51 534.35,636.78 ZM 503.00 608.00 L 503.00 585.00 L 509.50 585.00 L 516.00 585.00 L 516.00 608.00 L 516.00 631.00 L 509.50 631.00 L 503.00 631.00 L 503.00 608.00 ZM 497.00 557.96 C464.98,554.03 431.46,540.01 403.00,518.66 C389.02,508.17 359.00,479.91 359.00,477.24 C359.00,476.01 382.61,458.47 396.00,449.75 C413.62,438.28 432.76,427.75 449.04,420.58 C490.37,402.37 519.64,400.34 556.74,413.12 C584.83,422.80 620.38,442.98 656.82,469.95 L 668.14 478.32 L 657.32 489.28 C620.25,526.79 583.71,548.19 543.45,555.97 C530.87,558.39 508.37,559.36 497.00,557.96 ZM 537.04 530.68 C556.06,525.78 574.10,516.67 592.75,502.55 C598.11,498.50 604.49,493.13 606.93,490.62 C612.07,485.32 612.06,485.22 604.59,475.32 C598.16,466.78 586.66,456.32 578.12,451.25 C568.48,445.52 567.85,445.63 570.21,452.63 C571.26,455.73 572.63,461.84 573.27,466.20 C575.27,479.90 571.27,493.77 561.57,506.85 C558.98,510.34 556.67,513.00 556.43,512.77 C556.20,512.53 557.32,509.90 558.92,506.92 C568.30,489.48 567.51,467.98 556.92,452.12 C546.67,436.76 531.91,429.00 512.98,429.00 C494.21,429.00 479.30,436.53 468.99,451.20 C462.38,460.62 459.78,468.83 459.72,480.50 C459.67,490.71 461.55,498.53 466.11,507.00 L 469.08 512.50 L 464.93 508.00 C457.76,500.22 452.83,488.43 451.52,475.89 C450.81,469.17 452.68,457.40 455.53,450.58 C456.34,448.65 457.00,446.78 457.00,446.44 C457.00,445.40 445.96,451.91 438.91,457.10 C435.28,459.77 430.28,464.13 427.80,466.79 C422.00,472.98 414.00,483.84 414.00,485.51 C414.00,487.56 429.48,500.52 441.50,508.53 C462.72,522.68 480.49,530.03 501.50,533.36 C508.80,534.52 527.67,533.09 537.04,530.68 ZM 671.00 473.09 C665.67,468.34 665.58,468.17 668.00,467.58 C672.76,466.43 697.27,462.00 698.92,462.00 C700.14,462.00 700.85,463.51 701.65,467.75 C702.24,470.91 702.67,473.58 702.61,473.68 C702.26,474.17 681.41,478.00 679.14,477.99 C677.41,477.98 674.62,476.30 671.00,473.09 ZM 715.40 425.25 C717.03,417.20 720.24,374.11 720.36,358.57 L 720.50 340.63 L 702.50 332.45 C650.43,308.78 572.55,281.19 519.21,267.54 L 512.92 265.93 L 498.21 270.02 C459.07,280.93 417.35,294.55 379.01,308.94 C367.19,313.37 357.07,317.00 356.51,317.00 C355.61,317.00 351.58,302.08 352.29,301.38 C352.91,300.76 388.49,287.44 404.50,281.84 C439.86,269.46 507.61,249.00 513.26,249.00 C516.39,249.00 552.49,259.24 579.00,267.65 C626.19,282.61 679.82,303.36 722.75,323.25 L 738.00 330.32 L 738.00 342.64 C738.00,362.23 733.55,419.04 731.92,420.32 C731.20,420.89 715.82,428.00 715.32,428.00 C715.06,428.00 715.09,426.76 715.40,425.25 ZM 368.02 392.52 L 336.58 361.07 L 340.54 357.58 C342.72,355.66 344.95,354.06 345.51,354.04 C346.06,354.02 360.36,367.85 377.27,384.77 L 408.04 415.55 L 403.75 419.76 L 399.46 423.97 L 368.02 392.52 ZM 527.33 468.94 C520.18,465.40 517.82,456.52 522.28,449.91 C525.15,445.66 528.32,444.03 533.80,444.01 C539.62,443.99 543.58,446.26 545.99,450.98 C548.52,455.94 548.51,458.07 545.96,463.08 C542.13,470.59 535.12,472.79 527.33,468.94 Z" fill="rgb(253,253,253)"/>
</g>
</svg>