<svg xmlns="http://www.w3.org/2000/svg" width="576" height="768" viewBox="0 0 576 768">
<g>
<path d="M 303.23 703.89 C295.39,706.70 288.64,708.98 288.23,708.95 C285.51,708.78 244.18,692.54 223.89,683.67 C157.98,654.84 107.16,618.93 75.03,578.50 C47.58,543.96 30.43,501.01 26.52,457.00 L 25.85 449.50 L 30.18 454.49 C32.55,457.24 38.12,463.54 42.54,468.49 C50.25,477.12 50.66,477.84 52.43,485.50 C56.12,501.52 67.55,528.17 72.09,531.35 C74.03,532.71 82.44,531.85 86.24,529.89 C88.90,528.52 91.26,528.86 94.00,531.00 C95.38,532.08 97.06,532.97 97.75,532.98 C99.06,533.00 99.34,534.03 99.04,537.75 C98.88,539.67 99.35,540.00 102.21,540.00 C104.05,540.00 106.46,540.64 107.57,541.41 C108.68,542.19 111.77,543.06 114.45,543.36 C120.00,543.97 120.20,544.19 123.14,553.00 C129.19,571.18 141.53,592.31 154.71,607.12 C170.28,624.60 194.43,644.15 214.50,655.50 C220.98,659.16 219.75,658.01 207.00,648.44 C193.64,638.42 167.40,612.36 158.16,599.95 C143.08,579.68 133.57,559.80 127.62,536.07 L 124.50 523.63 L 113.62 516.80 C91.32,502.79 71.05,484.25 55.80,463.91 C40.96,444.11 34.22,431.80 30.50,417.71 C19.13,374.70 11.04,303.87 11.01,247.00 C11.00,229.77 12.75,179.10 13.39,178.31 C13.47,178.21 26.58,174.23 42.52,169.47 C58.46,164.72 77.65,158.95 85.17,156.66 L 98.85 152.50 L 121.15 129.00 C133.41,116.07 143.94,105.37 144.53,105.21 C145.13,105.06 156.79,111.02 170.45,118.46 C184.11,125.91 195.82,132.00 196.48,132.00 C198.49,132.00 229.85,110.72 241.50,101.45 C253.70,91.74 273.39,74.66 282.27,66.10 C286.57,61.94 288.38,60.78 289.41,61.52 C290.16,62.06 296.34,67.62 303.14,73.88 C309.94,80.14 322.48,90.88 331.00,97.74 C346.88,110.53 378.03,132.00 380.69,132.00 C381.51,132.00 393.45,125.85 407.22,118.34 L 432.25 104.68 L 442.38 115.09 C447.96,120.82 458.45,131.64 465.70,139.15 L 478.88 152.80 L 514.69 163.40 C557.42,176.04 562.24,177.20 562.93,179.56 C563.10,180.13 563.03,180.76 563.18,181.64 C563.56,183.76 564.40,198.61 565.06,214.63 C567.78,281.17 560.26,363.35 546.46,417.75 C541.70,436.54 523.50,464.35 501.52,486.45 C487.45,500.59 475.19,510.07 456.70,521.11 C452.63,523.54 452.24,524.14 451.01,530.11 C442.33,571.84 415.72,611.62 374.47,644.50 C368.95,648.90 362.88,653.75 360.97,655.28 C354.15,660.73 379.19,645.00 388.75,637.82 C400.12,629.28 418.99,611.36 426.57,601.89 C437.85,587.79 447.93,569.70 453.65,553.24 C454.69,550.23 456.23,547.74 457.24,547.42 C458.21,547.12 459.00,546.42 459.00,545.87 C459.00,545.33 459.38,545.12 459.85,545.41 C460.32,545.70 461.56,545.29 462.60,544.50 C463.65,543.71 465.11,543.05 465.85,543.03 C468.85,542.96 474.00,539.71 474.00,537.89 C474.00,536.85 474.45,536.00 475.00,536.00 C475.55,536.00 476.00,535.44 476.00,534.75 C476.00,533.91 477.97,533.44 481.96,533.31 C485.24,533.20 488.77,532.66 489.81,532.10 C490.92,531.51 492.06,531.46 492.60,531.99 C493.09,532.48 495.52,533.34 497.99,533.89 C501.96,534.78 502.74,534.65 504.68,532.83 C506.95,530.70 511.07,522.86 514.06,515.00 C515.00,512.53 517.02,507.58 518.54,504.00 C521.63,496.74 524.96,484.84 524.98,480.96 C524.99,479.27 526.54,476.92 529.56,473.96 C532.07,471.51 537.79,465.13 542.26,459.78 C546.74,454.44 550.59,450.25 550.81,450.48 C551.40,451.06 549.21,469.92 547.41,479.84 C542.44,507.25 529.36,538.91 512.64,564.00 C500.22,582.64 475.73,608.62 455.50,624.60 C418.12,654.14 365.35,681.62 303.23,703.89 ZM 271.69 574.36 C272.07,574.74 279.83,574.92 288.94,574.77 L 305.50 574.50 L 305.77 557.30 L 306.05 540.10 L 300.27 539.80 L 294.50 539.50 L 293.97 481.00 L 300.00 481.00 L 300.00 504.00 L 307.75 504.23 C312.01,504.35 319.89,504.30 325.25,504.12 L 335.00 503.79 L 335.00 516.00 L 323.00 516.00 L 323.00 551.00 L 359.05 551.00 L 358.50 516.50 L 352.75 516.20 L 347.00 515.90 L 347.00 504.00 L 376.00 504.00 L 376.00 516.00 L 423.00 516.00 L 423.00 469.00 L 382.00 469.00 L 382.00 466.50 C382.00,464.21 381.63,464.00 377.57,464.00 C370.12,464.00 370.00,463.64 370.00,441.43 L 370.00 422.00 L 335.00 422.00 L 335.00 419.00 C335.00,416.33 334.67,416.00 332.00,416.00 C329.49,416.00 329.00,415.60 329.00,413.57 C329.00,411.65 328.41,411.06 326.25,410.82 C323.76,410.53 323.47,410.07 323.17,406.00 C322.99,403.52 323.14,398.23 323.51,394.23 L 324.17 386.95 L 341.34 387.23 L 358.50 387.50 L 359.10 399.00 L 381.90 399.00 L 382.50 410.50 L 394.00 411.10 L 394.00 446.00 L 428.90 446.00 L 429.50 457.50 L 463.50 457.50 L 464.05 422.00 L 429.00 422.00 L 429.00 434.00 L 417.25 434.00 L 405.50 434.00 L 405.21 419.78 C405.01,410.04 404.54,405.33 403.71,404.80 C403.04,404.38 400.59,404.02 398.25,404.02 L 394.00 404.00 L 394.00 387.18 L 429.00 387.24 L 429.00 399.00 L 464.00 399.00 L 464.00 380.50 C464.00,368.83 464.37,362.00 465.00,362.00 C465.55,362.00 466.00,361.34 466.00,360.54 C466.00,358.57 469.25,356.92 470.99,357.99 C471.85,358.52 473.15,358.30 474.41,357.43 C475.53,356.64 477.93,356.00 479.75,356.00 C483.52,356.00 484.98,353.80 483.16,350.88 C481.25,347.83 481.79,347.13 486.25,346.81 C490.43,346.51 490.53,346.41 492.20,341.20 C493.13,338.28 494.38,330.68 494.98,324.31 C495.57,317.93 496.22,312.45 496.42,312.11 C497.99,309.53 500.55,238.67 499.34,231.44 C498.85,228.53 498.35,228.24 488.66,225.28 C483.07,223.57 470.40,219.68 460.50,216.64 L 442.50 211.10 L 430.96 199.04 L 419.43 186.97 L 400.76 196.49 C390.50,201.72 381.33,206.00 380.39,206.00 C372.97,206.00 303.05,162.99 294.00,152.86 C288.95,147.21 288.82,147.68 288.60,170.82 C288.43,188.18 288.13,192.31 286.95,193.05 C286.15,193.56 282.24,193.98 278.25,193.98 L 271.00 194.00 L 271.00 229.00 L 282.00 229.00 L 282.00 282.13 L 279.25 281.82 L 276.50 281.50 L 275.94 258.00 L 240.90 258.00 L 241.20 252.25 L 241.50 246.50 L 247.25 246.20 L 253.00 245.90 L 253.00 211.00 L 218.00 211.00 L 218.00 246.00 L 220.75 246.19 C222.26,246.30 224.85,246.44 226.50,246.49 C229.43,246.59 229.51,246.72 229.80,252.30 L 230.10 258.00 L 194.00 258.00 L 194.00 247.00 L 148.00 247.00 L 148.00 293.00 L 193.87 293.00 L 194.18 295.75 C194.43,297.91 195.09,298.57 197.25,298.82 C199.55,299.08 200.00,299.61 200.00,302.07 C200.00,304.66 200.35,305.00 203.00,305.00 L 206.00 305.00 L 206.00 340.00 L 240.87 340.00 L 241.18 342.75 C241.43,344.91 242.09,345.57 244.25,345.82 C246.55,346.08 247.00,346.61 247.00,349.07 C247.00,351.66 247.35,352.00 250.00,352.00 L 253.00 352.00 L 253.00 375.00 L 218.00 375.00 L 218.00 364.06 L 194.50 363.50 L 194.20 357.75 L 193.90 352.00 L 183.00 352.00 L 183.00 317.05 L 147.50 316.50 L 147.20 310.75 L 146.90 305.00 L 113.00 305.00 L 113.00 340.00 L 148.00 340.00 L 148.00 329.00 L 171.00 329.00 L 171.00 358.00 L 183.00 358.00 L 183.00 375.00 L 165.61 375.00 C164.90,375.00 164.21,375.00 163.56,375.00 C152.69,375.01 148.94,375.01 147.66,373.23 C146.98,372.30 146.99,370.87 147.00,368.70 C147.00,368.45 147.00,368.19 147.00,367.92 L 147.00 364.00 L 113.00 364.00 L 113.00 399.05 L 147.50 398.50 L 147.80 392.75 L 148.10 387.00 L 183.00 387.00 L 183.00 381.61 C183.00,377.61 183.41,376.06 184.58,375.61 C185.45,375.27 190.63,375.00 196.08,375.00 L 206.00 375.00 L 206.00 387.00 L 183.00 387.00 L 183.00 405.00 L 171.00 405.00 L 171.00 434.00 L 148.10 434.00 L 147.80 428.25 L 147.50 422.50 L 113.00 421.95 L 113.00 439.48 C113.00,455.47 113.15,457.01 114.75,457.07 C115.71,457.11 123.47,457.22 132.00,457.31 L 147.50 457.48 L 147.36 451.74 L 147.22 446.00 L 171.00 446.00 L 171.00 469.00 L 153.00 469.00 L 153.00 516.00 L 200.00 516.00 L 200.00 475.00 L 202.93 475.00 C205.39,475.00 205.92,474.55 206.18,472.25 L 206.50 469.50 L 253.00 468.96 L 253.00 422.00 L 256.00 422.00 C258.51,422.00 259.00,421.60 259.00,419.57 C259.00,417.65 259.59,417.06 261.75,416.82 C263.91,416.57 264.57,415.91 264.82,413.75 L 265.13 411.00 L 282.00 411.00 L 282.00 469.00 L 265.06 469.00 L 264.50 492.50 L 230.00 493.05 L 229.99 502.27 C229.97,515.78 229.86,516.00 223.38,516.00 L 218.00 516.00 L 218.00 551.00 L 253.00 551.00 L 253.00 516.00 L 241.00 516.00 L 241.00 504.00 L 276.00 504.00 L 276.00 481.00 L 282.00 481.00 L 282.00 540.00 L 271.00 540.00 L 271.00 556.83 C271.00,566.09 271.31,573.98 271.69,574.36 ZM 467.23 486.00 C466.54,487.69 475.12,480.39 485.16,470.76 C492.82,463.41 493.31,462.41 500.01,440.07 C518.29,379.09 526.74,312.59 525.83,236.83 C525.65,221.61 525.20,208.87 524.84,208.50 C524.48,208.14 509.18,203.32 490.84,197.79 L 457.50 187.74 L 424.50 153.95 L 404.05 164.97 C392.80,171.03 382.75,176.26 381.73,176.59 C376.02,178.40 321.16,141.99 296.86,120.26 C296.14,119.62 295.49,119.03 294.89,118.49 C291.29,115.23 289.63,113.73 288.04,113.80 C286.42,113.86 284.86,115.54 281.39,118.63 C260.33,137.34 232.59,157.05 209.11,169.98 L 195.72 177.36 L 184.61 171.53 C178.50,168.32 168.59,163.00 162.58,159.71 L 151.66 153.73 L 146.11 159.62 C143.06,162.85 135.77,170.50 129.91,176.62 L 119.25 187.73 L 85.37 197.95 C66.74,203.57 51.38,208.29 51.23,208.44 C50.46,209.20 51.11,284.60 51.99,298.00 C55.83,356.21 66.86,413.76 82.60,457.73 C85.08,464.66 85.67,465.40 96.79,475.45 C103.18,481.22 108.55,485.78 108.74,485.59 C108.93,485.40 107.90,482.61 106.46,479.37 C98.98,462.64 90.86,438.33 85.07,415.27 C71.46,361.16 65.54,308.53 66.20,247.56 L 66.50 219.62 L 76.00 216.82 C81.22,215.28 94.89,211.22 106.37,207.79 L 127.23 201.57 L 140.96 187.29 L 154.70 173.01 L 175.36 183.59 L 196.03 194.16 L 210.77 186.45 C234.58,173.98 261.30,155.88 281.26,138.71 L 288.03 132.88 L 293.76 137.82 C315.46,156.50 352.04,180.70 374.16,191.00 L 380.82 194.10 L 394.66 187.16 C402.27,183.33 411.40,178.56 414.94,176.55 L 421.37 172.90 L 435.60 187.10 L 449.82 201.29 L 478.66 210.14 C494.52,215.01 508.00,218.99 508.62,218.99 C510.47,219.00 510.98,225.39 510.99,248.70 C511.03,332.62 497.25,414.08 473.33,471.39 C470.31,478.60 467.57,485.17 467.23,486.00 ZM 269.50 650.67 C279.40,655.78 287.85,659.97 288.27,659.98 C289.53,660.01 310.58,649.25 325.00,641.20 C351.37,626.48 381.01,606.87 388.82,599.00 C397.03,590.72 412.65,567.93 416.56,558.52 C418.13,554.76 417.68,555.06 408.33,564.03 C383.01,588.34 344.17,615.04 303.31,636.23 L 287.96 644.19 L 270.93 635.05 C226.23,611.06 193.82,588.58 165.62,562.00 L 158.72 555.50 L 161.99 562.00 C170.50,578.93 185.20,597.59 196.83,606.22 C216.36,620.74 242.64,636.81 269.50,650.67 ZM 376.08 475.00 L 375.50 492.50 L 344.43 492.76 C327.34,492.91 313.06,492.72 312.68,492.35 C312.31,491.97 312.00,486.57 312.00,480.33 L 312.00 469.00 L 294.00 469.00 L 294.00 411.00 L 311.87 411.00 L 312.18 413.75 C312.41,415.72 313.14,416.59 314.75,416.82 C316.39,417.05 317.00,417.81 317.00,419.59 C317.00,421.52 317.64,422.18 320.00,422.65 L 323.00 423.25 L 323.00 469.00 L 370.00 469.00 L 370.00 472.00 C370.00,474.68 370.33,475.00 373.04,475.00 ZM 282.00 293.00 L 282.00 346.00 L 259.00 346.00 L 259.00 343.00 C259.00,340.33 258.67,340.00 256.00,340.00 L 253.00 340.00 L 253.00 293.00 L 206.00 293.00 L 206.00 290.57 C206.00,288.65 205.41,288.06 203.25,287.82 C201.09,287.57 200.43,286.91 200.18,284.75 C199.92,282.45 199.39,282.00 196.93,282.00 C194.01,282.00 194.00,281.97 194.00,276.00 L 194.00 270.00 L 265.00 270.00 L 265.00 293.00 ZM 195.00 466.50 C195.00,468.89 194.73,469.00 189.00,469.00 L 183.00 469.00 L 183.00 411.00 L 194.00 411.00 L 194.00 399.00 L 218.00 399.00 L 218.00 387.00 L 253.00 387.00 L 253.00 411.00 L 250.00 411.00 C247.47,411.00 247.00,411.39 247.00,413.50 C247.00,414.88 246.44,416.05 245.75,416.12 C245.06,416.18 243.82,416.29 243.00,416.37 C242.17,416.44 241.36,417.68 241.19,419.16 C240.77,422.83 238.64,423.17 220.99,422.37 L 206.00 421.69 L 206.00 442.24 C206.00,443.28 206.00,444.28 206.00,445.23 C206.01,458.00 206.01,462.10 204.10,463.41 C203.20,464.03 201.86,464.02 199.89,464.00 C199.58,464.00 199.26,464.00 198.92,464.00 C195.41,464.00 195.00,464.26 195.00,466.50 ZM 311.30 390.51 L 310.70 399.00 L 265.00 399.00 L 265.00 358.00 L 310.69 358.00 L 311.30 370.01 C311.63,376.61 311.63,385.83 311.30,390.51 ZM 359.00 369.50 L 359.00 375.00 L 324.28 375.00 L 323.77 366.05 C323.05,353.51 323.45,352.00 327.49,352.00 C330.90,352.00 333.64,349.84 332.52,348.04 C332.17,347.46 332.58,346.72 333.44,346.39 C334.30,346.06 335.00,344.71 335.00,343.39 C335.00,341.07 335.23,341.00 343.00,341.00 C347.67,341.00 351.00,341.42 351.00,342.00 C351.00,342.55 352.56,343.00 354.47,343.00 C356.38,343.00 359.42,343.83 361.22,344.84 C363.53,346.13 365.95,346.56 369.42,346.30 C372.13,346.09 375.69,346.39 377.34,346.97 C379.75,347.81 380.69,347.69 382.17,346.35 C383.17,345.44 384.00,345.07 384.00,345.54 C384.00,346.00 384.61,345.55 385.35,344.54 C386.09,343.52 387.21,343.01 387.85,343.41 C388.48,343.80 389.00,343.59 389.00,342.95 C389.00,342.31 389.65,342.03 390.44,342.34 C391.22,342.64 392.09,342.35 392.36,341.69 C392.62,341.04 392.88,343.09 392.92,346.25 L 393.00 352.00 L 382.10 352.00 L 381.50 363.50 L 371.50 363.70 C366.00,363.81 360.94,363.92 360.25,363.95 C359.41,363.98 359.00,365.79 359.00,369.50 ZM 417.58 375.00 C411.85,375.00 406.56,375.14 405.83,375.31 C405.10,375.48 402.14,375.45 399.25,375.26 L 394.00 374.90 L 394.00 358.10 L 399.75 357.80 C405.19,357.52 405.52,357.35 405.82,354.75 C405.99,353.24 406.55,352.00 407.07,352.00 C407.58,352.00 408.00,351.07 408.00,349.94 C408.00,348.81 408.45,348.16 409.00,348.50 C409.56,348.84 409.99,348.10 409.98,346.81 C409.97,344.95 409.78,344.79 409.00,346.00 C408.27,347.12 408.03,346.62 408.03,344.00 C408.03,342.08 408.47,339.83 409.00,339.00 C409.53,338.17 409.98,337.91 409.98,338.40 C409.99,338.90 410.85,338.54 411.89,337.60 C413.27,336.35 415.26,335.95 419.28,336.11 L 424.78 336.33 L 424.68 339.92 C424.62,341.89 424.78,344.17 425.04,345.00 C425.41,346.22 424.54,346.45 420.33,346.22 C414.27,345.89 412.57,347.42 415.95,350.16 C417.20,351.17 417.72,352.00 417.11,352.00 C415.13,352.00 415.94,353.84 418.25,354.60 C421.44,355.64 424.98,355.87 428.75,355.28 C432.31,354.73 432.79,353.65 430.50,351.36 C426.30,347.16 430.33,345.01 441.01,345.75 C450.52,346.41 458.00,349.80 458.00,353.46 C458.00,354.79 458.45,356.16 459.00,356.50 C461.06,357.77 459.87,358.82 455.75,359.35 C453.41,359.66 449.70,360.23 447.50,360.62 C443.83,361.28 443.71,361.40 446.00,362.07 C447.50,362.51 444.89,362.80 439.50,362.80 C433.58,362.80 431.36,362.53 433.00,362.00 C435.17,361.31 434.97,361.19 431.50,361.11 C428.57,361.05 427.90,361.29 429.00,362.00 C430.00,362.65 430.08,362.97 429.25,362.98 C428.39,363.00 428.00,364.87 428.00,369.00 L 428.00 375.00 ZM 312.93 344.75 C313.05,345.67 310.60,346.00 303.54,346.00 L 294.00 346.00 L 294.00 309.00 L 296.45 309.00 C297.80,309.00 300.03,310.01 301.39,311.25 C307.47,316.76 309.86,318.43 315.41,321.09 C318.67,322.64 321.70,323.68 322.16,323.40 C322.62,323.11 323.00,326.73 323.00,331.44 C323.00,340.48 322.38,341.46 318.52,338.64 C314.70,335.84 312.13,338.65 312.93,344.75 ZM 183.06 258.00 L 182.50 281.50 L 171.45 281.78 C165.37,281.94 160.08,281.75 159.70,281.36 C159.31,280.98 159.00,275.57 159.00,269.33 L 159.00 258.00 ZM 189.00 481.00 L 189.00 504.00 L 165.00 504.00 L 165.00 481.00 ZM 358.58 449.00 L 358.50 457.50 L 349.50 457.62 C344.55,457.68 339.26,457.54 337.75,457.30 L 335.00 456.87 L 335.00 434.00 L 357.74 434.00 L 358.20 437.25 C358.45,439.04 358.63,444.33 358.58,449.00 ZM 218.00 434.00 L 241.00 434.00 L 241.00 458.00 L 230.17 458.00 C224.21,458.00 219.03,457.70 218.67,457.33 C218.30,456.97 218.00,451.57 218.00,445.33 ZM 241.00 305.00 L 241.00 329.00 L 230.17 329.00 C224.21,329.00 219.03,328.70 218.67,328.33 C218.30,327.97 218.00,322.57 218.00,316.33 L 218.00 305.00 ZM 411.00 481.00 L 411.00 504.00 L 388.00 504.00 L 388.00 481.00 ZM 323.00 305.00 C323.00,312.14 322.15,314.66 320.59,312.14 C320.30,311.67 317.72,311.01 314.86,310.67 C308.22,309.88 303.82,306.14 304.65,301.98 C305.30,298.73 304.66,298.23 298.96,297.52 C294.55,296.96 292.28,296.00 295.39,296.00 C296.34,296.00 296.84,295.55 296.49,294.99 C296.10,294.36 297.56,294.04 300.39,294.15 C303.36,294.26 304.69,294.70 304.27,295.41 C303.91,296.01 304.34,295.91 305.23,295.19 C306.12,294.47 307.45,293.96 308.18,294.06 C311.07,294.45 312.00,293.91 312.00,291.84 C312.00,289.94 312.39,290.13 315.13,293.34 C317.10,295.65 319.13,297.00 320.63,297.00 C322.93,297.00 323.00,297.25 323.00,305.00 ZM 393.00 376.00 L 393.00 387.00 L 371.00 387.00 L 371.00 378.00 L 378.50 378.00 C382.83,378.00 386.00,377.58 386.00,377.00 C386.00,376.45 387.58,376.00 389.50,376.00 ZM 136.00 375.00 L 136.00 387.00 L 124.00 387.00 L 124.00 375.00 ZM 294.00 551.00 L 294.00 563.00 L 282.00 563.00 L 282.00 551.00 ZM 241.00 528.00 L 241.00 540.00 L 236.04 540.00 C230.36,540.00 229.49,539.03 229.10,532.25 L 228.85 528.00 ZM 241.00 222.90 L 241.00 235.00 L 235.47 235.00 C229.19,235.00 228.71,234.46 229.19,227.86 L 229.50 223.50 L 235.25 223.20 ZM 135.80 439.75 L 135.50 445.50 L 130.46 445.79 C127.69,445.96 125.10,445.77 124.71,445.38 C124.32,444.99 124.00,442.27 124.00,439.33 L 124.00 434.00 L 136.10 434.00 ZM 135.80 322.75 L 135.50 328.50 L 130.46 328.79 C127.69,328.96 125.10,328.77 124.71,328.38 C124.32,327.99 124.00,325.27 124.00,322.33 L 124.00 317.00 L 136.10 317.00 ZM 347.10 528.00 L 346.50 539.50 L 342.00 539.69 C335.47,539.98 335.00,539.56 335.00,533.42 L 335.00 528.00 ZM 452.00 434.00 L 452.00 446.00 L 441.00 446.00 L 441.00 434.00 ZM 452.00 376.00 L 452.00 387.00 L 441.00 387.00 L 441.00 376.00 ZM 475.11 346.25 C474.86,347.93 471.77,346.85 471.27,344.91 C470.82,343.21 470.10,342.89 467.43,343.20 C465.62,343.41 464.36,343.23 464.63,342.79 C464.90,342.36 464.75,342.00 464.31,342.00 C463.86,342.00 463.67,338.97 463.88,335.25 C464.09,331.54 464.50,329.17 464.79,330.00 C465.38,331.69 468.89,335.00 470.10,335.00 C470.53,335.00 471.67,336.33 472.63,337.95 C473.58,339.57 474.71,340.68 475.13,340.42 C475.76,340.03 475.75,342.05 475.11,346.25 ZM 380.28 336.92 C379.73,337.79 378.66,338.58 377.89,338.68 C375.34,339.02 371.21,336.93 370.72,335.05 C370.02,332.38 371.00,328.21 372.46,327.65 C376.15,326.24 382.37,333.61 380.28,336.92 ZM 297.42 269.39 C294.32,270.58 294.00,269.90 294.00,262.00 C294.00,257.60 294.43,254.00 294.95,254.00 C296.62,254.00 301.00,256.29 301.00,257.16 C301.00,257.62 300.55,258.00 300.00,258.00 C299.45,258.00 299.00,260.43 299.00,263.39 C299.00,267.39 298.59,268.94 297.42,269.39 ZM 288.08 213.25 C288.01,216.73 287.79,217.00 285.00,217.00 C282.03,217.00 282.00,216.94 282.00,211.50 L 282.00 206.00 L 285.41 206.00 C288.12,206.00 288.75,206.36 288.49,207.75 C288.30,208.71 288.12,211.19 288.08,213.25 ZM 358.75 323.50 C358.31,328.74 358.12,329.00 355.50,327.94 C353.76,327.24 353.73,327.13 355.28,327.07 C356.74,327.01 356.51,326.45 354.03,324.03 C352.37,322.40 351.00,320.62 351.00,320.07 C351.00,318.70 354.81,316.76 356.02,317.51 C356.56,317.85 357.01,317.53 357.03,316.81 C357.05,316.01 357.47,316.19 358.09,317.27 C358.66,318.25 358.96,321.05 358.75,323.50 ZM 344.80 317.48 C346.71,319.68 346.55,321.21 344.61,319.28 C344.21,318.88 342.23,318.47 340.19,318.37 C338.16,318.27 336.16,318.14 335.75,318.09 C334.87,317.98 334.73,312.60 335.58,311.75 C336.42,310.91 342.23,314.52 344.80,317.48 ZM 468.89 529.61 C465.69,531.38 464.50,531.32 462.87,529.31 C461.94,528.16 461.90,527.86 462.75,528.37 C463.47,528.80 464.00,528.62 464.00,527.94 C464.00,527.06 464.40,527.09 465.52,528.02 C466.80,529.08 466.94,529.01 466.41,527.63 C465.92,526.35 466.19,526.13 467.64,526.64 C471.11,527.88 471.27,528.28 468.89,529.61 ZM 375.50 308.50 C375.50,309.81 374.73,310.61 373.25,310.82 C371.45,311.08 371.00,310.66 371.00,308.71 C371.00,306.82 371.50,306.30 373.25,306.39 C374.80,306.46 375.50,307.13 375.50,308.50 ZM 296.35 231.76 C296.61,232.18 296.20,233.64 295.45,235.01 C294.10,237.44 294.07,237.40 294.04,233.25 C294.01,229.65 294.31,229.00 296.00,229.00 C297.10,229.00 298.00,229.45 298.00,230.00 C298.00,230.55 297.52,231.00 296.94,231.00 C296.36,231.00 296.09,231.34 296.35,231.76 ZM 452.00 319.00 C452.00,321.38 451.99,321.38 449.44,319.60 C448.34,318.83 446.33,317.99 444.97,317.73 C443.55,317.47 444.51,317.21 447.25,317.14 C451.38,317.02 452.00,317.26 452.00,319.00 ZM 392.85 322.25 C392.93,325.41 392.77,328.00 392.50,328.00 C392.23,328.00 392.00,327.07 392.00,325.94 C392.00,324.81 391.55,324.16 391.00,324.50 C390.42,324.86 390.01,323.93 390.02,322.31 C390.03,320.25 390.27,319.88 390.93,320.92 C391.61,322.00 391.94,321.62 392.27,319.42 C392.51,317.79 392.77,319.04 392.85,322.25 ZM 479.50 340.00 C479.16,340.55 478.46,341.00 477.94,341.00 C477.42,341.00 477.00,340.55 477.00,340.00 C477.00,339.45 477.70,339.00 478.56,339.00 C479.42,339.00 479.84,339.45 479.50,340.00 Z" fill="rgb(11,30,48)"/>
<path d="M 417.58 375.00 L 428.00 375.00 L 428.00 369.00 C428.00,364.87 428.39,363.00 429.25,362.98 C430.08,362.97 430.00,362.65 429.00,362.00 C427.90,361.29 428.57,361.05 431.50,361.11 C434.97,361.19 435.17,361.31 433.00,362.00 C431.36,362.53 433.58,362.80 439.50,362.80 C444.89,362.80 447.50,362.51 446.00,362.07 C443.71,361.40 443.83,361.28 447.50,360.62 C449.70,360.23 453.41,359.66 455.75,359.35 C459.87,358.82 461.06,357.77 459.00,356.50 C458.45,356.16 458.00,354.79 458.00,353.46 C458.00,349.80 450.52,346.41 441.01,345.75 C430.33,345.01 426.30,347.16 430.50,351.36 C432.79,353.65 432.31,354.73 428.75,355.28 C424.98,355.87 421.44,355.64 418.25,354.60 C415.94,353.84 415.13,352.00 417.11,352.00 C417.72,352.00 417.20,351.17 415.95,350.16 C412.57,347.42 414.27,345.89 420.33,346.22 C424.54,346.45 425.41,346.22 425.04,345.00 C424.78,344.17 424.62,341.89 424.68,339.92 L 424.78 336.33 L 419.28 336.11 C415.26,335.95 413.27,336.35 411.89,337.60 C410.85,338.54 409.99,338.90 409.98,338.40 C409.98,337.91 409.53,338.17 409.00,339.00 C408.47,339.83 408.03,342.08 408.03,344.00 C408.03,346.62 408.27,347.12 409.00,346.00 C409.78,344.79 409.97,344.95 409.98,346.81 C409.99,348.10 409.56,348.84 409.00,348.50 C408.45,348.16 408.00,348.81 408.00,349.94 C408.00,351.07 407.58,352.00 407.07,352.00 C406.55,352.00 405.99,353.24 405.82,354.75 C405.69,355.88 405.55,356.55 405.00,356.97 L 405.00 327.94 L 428.50 328.50 L 429.10 340.00 L 463.85 340.00 C463.93,341.24 464.09,342.00 464.31,342.00 C464.75,342.00 464.90,342.36 464.63,342.79 C464.36,343.23 465.62,343.41 467.43,343.20 C470.10,342.89 470.82,343.21 471.27,344.91 C471.77,346.85 474.86,347.93 475.11,346.25 C475.75,342.05 475.76,340.03 475.13,340.42 C474.71,340.68 473.58,339.57 472.63,337.95 C471.67,336.33 470.53,335.00 470.10,335.00 C468.89,335.00 465.38,331.69 464.79,330.00 C464.55,329.31 464.22,330.84 464.00,333.51 L 464.00 305.00 L 429.00 305.00 L 429.00 317.00 L 405.00 317.00 L 405.00 293.00 L 429.00 293.00 L 429.00 247.18 L 425.25 246.63 C420.26,245.90 388.24,245.87 384.75,246.59 L 382.00 247.16 L 382.00 282.00 L 379.00 282.00 C376.51,282.00 376.00,282.40 376.00,284.38 C376.00,286.21 375.32,286.89 373.00,287.35 C370.62,287.83 370.00,288.47 370.00,290.48 L 370.00 293.00 L 323.00 293.00 L 323.00 340.00 L 321.59 340.00 C322.75,339.66 323.00,337.16 323.00,331.44 C323.00,326.73 322.62,323.11 322.16,323.40 C321.70,323.68 318.67,322.64 315.41,321.09 C309.86,318.43 307.47,316.76 301.39,311.25 C300.03,310.01 297.80,309.00 296.45,309.00 L 294.00 309.00 L 294.00 296.34 C294.32,296.67 296.23,297.17 298.96,297.52 C304.66,298.23 305.30,298.73 304.65,301.98 C303.82,306.14 308.22,309.88 314.86,310.67 C317.72,311.01 320.30,311.67 320.59,312.14 C322.15,314.66 323.00,312.14 323.00,305.00 C323.00,297.25 322.93,297.00 320.63,297.00 C319.13,297.00 317.10,295.65 315.13,293.34 C312.39,290.13 312.00,289.94 312.00,291.84 C312.00,293.91 311.07,294.45 308.18,294.06 C307.45,293.96 306.12,294.47 305.23,295.19 C304.34,295.91 303.91,296.01 304.27,295.41 C304.69,294.70 303.36,294.26 300.39,294.15 C297.56,294.04 296.10,294.36 296.49,294.99 C296.84,295.55 296.34,296.00 295.39,296.00 C294.58,296.00 294.14,296.06 294.00,296.17 L 294.00 293.00 L 311.00 293.00 L 311.00 270.00 L 346.00 270.00 L 346.00 264.15 C346.00,260.93 346.29,255.53 346.64,252.15 L 347.28 246.00 L 358.00 246.00 L 358.00 211.00 L 323.00 211.00 L 323.00 246.00 L 335.00 246.00 L 335.00 258.00 L 300.00 258.00 L 300.00 282.00 L 294.00 282.00 L 294.00 229.00 L 304.81 229.00 L 305.42 224.25 C305.76,221.64 305.93,213.76 305.80,206.75 L 305.56 194.00 L 271.00 194.00 L 278.25 193.98 C282.24,193.98 286.15,193.56 286.95,193.05 C288.13,192.31 288.43,188.18 288.60,170.82 C288.82,147.68 288.95,147.21 294.00,152.86 C303.05,162.99 372.97,206.00 380.39,206.00 C381.33,206.00 390.50,201.72 400.76,196.49 L 419.43 186.97 L 430.96 199.04 L 442.50 211.10 L 460.50 216.64 C470.40,219.68 483.07,223.57 488.66,225.28 C498.35,228.24 498.85,228.53 499.34,231.44 C500.55,238.67 497.99,309.53 496.42,312.11 C496.22,312.45 495.57,317.93 494.98,324.31 C494.38,330.68 493.13,338.28 492.20,341.20 C490.53,346.41 490.43,346.51 486.25,346.81 C481.79,347.13 481.25,347.83 483.16,350.88 C484.98,353.80 483.52,356.00 479.75,356.00 C477.93,356.00 475.53,356.64 474.41,357.43 C473.15,358.30 471.85,358.52 470.99,357.99 C469.25,356.92 466.00,358.57 466.00,360.54 C466.00,361.34 465.55,362.00 465.00,362.00 C464.37,362.00 464.00,368.83 464.00,380.50 L 464.00 364.00 L 429.00 364.00 L 429.00 375.00 L 417.25 375.12 C414.30,375.15 411.06,375.16 408.11,375.15 C410.33,375.06 413.86,375.00 417.58,375.00 ZM 381.73 176.59 C382.75,176.26 392.80,171.03 404.05,164.97 L 424.50 153.95 L 404.21 164.88 C393.06,170.90 383.22,176.40 382.36,177.11 C381.50,177.83 379.07,178.29 376.96,178.13 C373.72,177.90 372.54,178.42 369.31,181.52 C367.22,183.53 366.14,184.84 366.92,184.42 C368.00,183.85 368.17,184.12 367.62,185.56 C367.22,186.59 367.18,187.15 367.53,186.80 C368.41,185.92 373.99,187.93 376.88,190.16 C378.20,191.17 378.87,192.01 378.38,192.03 C377.90,192.05 378.27,192.51 379.21,193.06 C380.53,193.82 383.98,192.51 394.49,187.24 L 380.82 194.10 L 374.16 191.00 C352.04,180.70 315.46,156.50 293.76,137.82 L 288.03 132.88 L 281.26 138.71 C261.30,155.88 234.58,173.98 210.77,186.45 L 196.03 194.16 L 175.36 183.59 L 154.70 173.01 L 140.96 187.29 L 127.23 201.57 L 106.37 207.79 C94.89,211.22 81.22,215.28 76.00,216.82 L 66.50 219.62 L 66.20 247.56 C65.54,308.53 71.46,361.16 85.07,415.27 C90.86,438.33 98.98,462.64 106.46,479.37 C107.90,482.61 108.93,485.40 108.74,485.59 C108.55,485.78 103.18,481.22 96.79,475.45 C85.67,465.40 85.08,464.66 82.60,457.73 C66.86,413.76 55.83,356.21 51.99,298.00 C51.11,284.60 50.46,209.20 51.23,208.44 C51.38,208.29 66.74,203.57 85.37,197.95 L 119.25 187.73 L 129.91 176.62 C135.77,170.50 143.06,162.85 146.11,159.62 L 151.66 153.73 L 162.58 159.71 C168.59,163.00 178.50,168.32 184.61,171.53 L 195.72 177.36 L 209.11 169.98 C232.59,157.05 260.33,137.34 281.39,118.63 C284.86,115.54 286.42,113.86 288.04,113.80 C289.63,113.73 291.29,115.23 294.89,118.49 C295.49,119.03 296.14,119.62 296.86,120.26 C321.16,141.99 376.02,178.40 381.73,176.59 ZM 269.50 650.67 C242.64,636.81 216.36,620.74 196.83,606.22 C185.20,597.59 170.50,578.93 161.99,562.00 L 158.72 555.50 L 165.62 562.00 C193.82,588.58 226.23,611.06 270.93,635.05 L 287.96 644.19 L 303.31 636.23 C344.17,615.04 383.01,588.34 408.33,564.03 C417.68,555.06 418.13,554.76 416.56,558.52 C412.65,567.93 397.03,590.72 388.82,599.00 C381.01,606.87 351.37,626.48 325.00,641.20 C310.58,649.25 289.53,660.01 288.27,659.98 C287.85,659.97 279.40,655.78 269.50,650.67 ZM 450.31 533.27 C449.11,539.17 449.05,541.23 449.94,542.89 C450.83,544.55 451.66,544.93 453.31,544.41 C456.22,543.51 456.64,542.70 458.13,535.22 C459.38,528.95 459.50,528.78 464.41,526.29 C473.30,521.79 486.61,513.16 495.16,506.35 C506.05,497.69 531.93,472.10 542.26,459.78 C546.29,454.97 549.82,451.09 550.64,450.54 C549.82,451.09 546.30,454.97 542.26,459.78 C537.79,465.13 532.07,471.51 529.56,473.96 C526.54,476.92 524.99,479.27 524.98,480.96 C524.96,484.84 521.63,496.74 518.54,504.00 C517.02,507.58 515.00,512.53 514.06,515.00 C511.07,522.86 506.95,530.70 504.68,532.83 C502.74,534.65 501.96,534.78 497.99,533.89 C495.52,533.34 493.09,532.48 492.60,531.99 C492.06,531.46 490.92,531.51 489.81,532.10 C488.77,532.66 485.24,533.20 481.96,533.31 C477.97,533.44 476.00,533.91 476.00,534.75 C476.00,535.44 475.55,536.00 475.00,536.00 C474.45,536.00 474.00,536.85 474.00,537.89 C474.00,539.71 468.85,542.96 465.85,543.03 C465.11,543.05 463.65,543.71 462.60,544.50 C461.56,545.29 460.32,545.70 459.85,545.41 C459.38,545.12 459.00,545.33 459.00,545.87 C459.00,546.42 458.21,547.12 457.24,547.42 C456.23,547.74 454.69,550.23 453.65,553.24 C447.93,569.70 437.85,587.79 426.57,601.89 C418.99,611.36 400.12,629.28 388.75,637.82 C379.19,645.00 354.15,660.73 360.97,655.28 C362.88,653.75 368.95,648.90 374.47,644.50 C414.68,612.45 440.98,573.85 450.31,533.27 ZM 36.96 462.21 C48.19,474.54 72.36,498.77 79.60,504.77 C87.04,510.93 98.11,518.35 107.50,523.47 C115.79,527.98 118.00,529.76 118.01,531.90 C118.01,532.78 118.48,535.19 119.05,537.25 C120.00,540.67 120.40,541.00 123.58,541.00 C125.65,541.00 127.28,540.43 127.60,539.60 C127.90,538.82 127.32,534.91 126.32,530.90 L 125.47 527.48 L 127.62 536.07 C133.57,559.80 143.08,579.68 158.16,599.95 C167.40,612.36 193.64,638.42 207.00,648.44 C219.75,658.01 220.98,659.16 214.50,655.50 C194.43,644.15 170.28,624.60 154.71,607.12 C141.53,592.31 129.19,571.18 123.14,553.00 C120.20,544.19 120.00,543.97 114.45,543.36 C111.77,543.06 108.68,542.19 107.57,541.41 C106.46,540.64 104.05,540.00 102.21,540.00 C99.35,540.00 98.88,539.67 99.04,537.75 C99.34,534.03 99.06,533.00 97.75,532.98 C97.06,532.97 95.38,532.08 94.00,531.00 C91.26,528.86 88.90,528.52 86.24,529.89 C82.44,531.85 74.03,532.71 72.09,531.35 C67.55,528.17 56.12,501.52 52.43,485.50 C50.66,477.84 50.25,477.12 42.54,468.49 C40.77,466.51 38.82,464.31 36.96,462.21 ZM 467.23 486.00 C467.57,485.17 470.31,478.60 473.33,471.39 C495.87,417.38 509.41,341.93 510.86,263.18 C510.47,285.57 509.15,308.19 506.98,329.50 C505.76,341.48 505.40,348.62 506.02,348.83 C506.56,349.02 507.00,349.72 507.00,350.39 C507.00,351.06 508.91,352.05 511.25,352.57 C516.29,353.70 518.70,352.67 519.46,349.05 C515.16,380.90 508.69,411.11 500.01,440.07 C493.31,462.41 492.82,463.41 485.16,470.76 C475.12,480.39 466.54,487.69 467.23,486.00 ZM 394.03 352.00 L 393.00 352.00 L 392.92 346.25 C392.88,343.09 392.62,341.04 392.36,341.69 C392.09,342.35 391.22,342.64 390.44,342.34 C389.65,342.03 389.00,342.31 389.00,342.95 C389.00,343.59 388.48,343.80 387.85,343.41 C387.21,343.01 386.09,343.52 385.35,344.54 C384.61,345.55 384.00,346.00 384.00,345.54 C384.00,345.07 383.17,345.44 382.17,346.35 C380.69,347.69 379.75,347.81 377.34,346.97 C375.69,346.39 372.13,346.09 369.42,346.30 C365.95,346.56 363.53,346.13 361.22,344.84 C359.42,343.83 356.38,343.00 354.47,343.00 C352.56,343.00 351.00,342.55 351.00,342.00 C351.00,341.42 347.67,341.00 343.00,341.00 C335.23,341.00 335.00,341.07 335.00,343.39 C335.00,343.48 335.00,343.57 334.99,343.66 C335.00,343.46 335.00,343.24 335.00,343.00 L 335.00 340.00 L 370.00 340.00 L 370.00 305.00 L 373.00 305.00 C375.67,305.00 376.00,304.67 376.00,302.00 C376.00,299.33 376.33,299.00 379.00,299.00 C381.68,299.00 382.00,298.67 382.00,295.95 L 382.00 292.90 L 393.50 293.50 ZM 417.00 258.00 L 417.00 282.00 L 394.00 282.00 L 394.00 258.00 ZM 358.46 326.38 L 358.46 328.47 L 350.98 328.60 C346.87,328.67 341.59,328.54 339.25,328.31 L 335.00 327.89 L 335.00 305.00 L 358.00 305.00 L 358.22 311.75 C358.27,313.60 358.33,315.84 358.37,317.96 C358.29,317.68 358.20,317.45 358.09,317.27 C357.47,316.19 357.05,316.01 357.03,316.81 C357.01,317.53 356.56,317.85 356.02,317.51 C354.81,316.76 351.00,318.70 351.00,320.07 C351.00,320.62 352.37,322.40 354.03,324.03 C356.51,326.45 356.74,327.01 355.28,327.07 C353.73,327.13 353.76,327.24 355.50,327.94 C357.52,328.76 358.10,328.79 358.46,326.38 ZM 347.10 223.00 L 346.50 234.50 L 340.75 234.80 L 335.00 235.10 L 335.00 223.00 ZM 451.87 323.00 L 451.74 329.00 L 446.54 329.00 C443.67,329.00 441.03,328.70 440.67,328.33 C440.30,327.97 440.00,325.27 440.00,322.33 L 440.00 317.00 L 452.01 317.00 L 451.98 318.50 C451.83,317.21 450.94,317.03 447.25,317.14 C444.51,317.21 443.55,317.47 444.97,317.73 C446.33,317.99 448.34,318.83 449.44,319.60 C451.23,320.85 451.77,321.22 451.93,320.51 ZM 393.00 376.00 L 389.50 376.00 C387.58,376.00 386.00,376.45 386.00,377.00 C386.00,377.58 382.83,378.00 378.50,378.00 L 371.00 378.00 L 371.00 387.00 L 370.00 387.00 L 370.00 375.00 L 393.00 375.00 L 393.01 368.75 C393.02,363.58 393.11,360.89 394.00,359.49 L 394.00 387.00 L 401.06 387.19 L 394.00 387.18 L 394.00 404.00 L 398.25 404.02 C400.59,404.02 403.04,404.38 403.71,404.80 C403.78,404.85 403.86,404.93 403.92,405.04 L 399.25 404.80 L 393.50 404.50 L 392.92 387.00 L 393.00 387.00 ZM 380.28 336.92 C382.37,333.61 376.15,326.24 372.46,327.65 C371.00,328.21 370.02,332.38 370.72,335.05 C371.21,336.93 375.34,339.02 377.89,338.68 C378.66,338.58 379.73,337.79 380.28,336.92 ZM 288.08 213.25 C288.12,211.19 288.30,208.71 288.49,207.75 C288.75,206.36 288.12,206.00 285.41,206.00 L 282.00 206.00 L 282.00 205.00 L 294.00 205.00 L 294.00 217.00 L 282.00 217.00 L 282.00 211.50 C282.00,216.94 282.03,217.00 285.00,217.00 C287.79,217.00 288.01,216.73 288.08,213.25 ZM 297.42 269.39 C298.59,268.94 299.00,267.39 299.00,263.39 C299.00,260.43 299.45,258.00 300.00,258.00 C300.55,258.00 301.00,257.62 301.00,257.16 C301.00,256.29 296.62,254.00 294.95,254.00 C294.43,254.00 294.00,257.60 294.00,262.00 C294.00,269.90 294.32,270.58 297.42,269.39 ZM 344.80 317.48 C342.23,314.52 336.42,310.91 335.58,311.75 C334.73,312.60 334.87,317.98 335.75,318.09 C336.16,318.14 338.16,318.27 340.19,318.37 C342.23,318.47 344.21,318.88 344.61,319.28 C346.55,321.21 346.71,319.68 344.80,317.48 ZM 312.93 344.75 C312.13,338.65 314.70,335.84 318.52,338.64 C319.54,339.38 320.33,339.86 320.94,340.00 L 320.00 340.00 C317.33,340.00 317.00,340.33 317.00,343.00 L 317.00 346.00 L 303.54 346.00 C310.60,346.00 313.05,345.67 312.93,344.75 ZM 524.73 292.40 C525.46,268.19 525.73,223.36 525.15,211.46 C525.43,216.14 525.70,225.84 525.83,236.83 C526.06,255.92 525.70,274.43 524.73,292.40 ZM 468.89 529.61 C471.27,528.28 471.11,527.88 467.64,526.64 C466.19,526.13 465.92,526.35 466.41,527.63 C466.94,529.01 466.80,529.08 465.52,528.02 C464.40,527.09 464.00,527.06 464.00,527.94 C464.00,528.62 463.47,528.80 462.75,528.37 C461.90,527.86 461.94,528.16 462.87,529.31 C464.50,531.32 465.69,531.38 468.89,529.61 ZM 334.29 345.66 C334.05,346.01 333.75,346.26 333.44,346.39 C332.58,346.72 332.17,347.46 332.52,348.04 C333.64,349.84 330.90,352.00 327.49,352.00 C325.68,352.00 324.60,352.30 324.03,353.77 C324.50,352.41 325.33,352.00 326.62,352.00 C328.60,352.00 329.00,351.49 329.00,349.00 C329.00,346.33 329.33,346.00 332.00,346.00 C333.14,346.00 333.85,345.94 334.29,345.66 ZM 375.50 308.50 C375.50,307.13 374.80,306.46 373.25,306.39 C371.50,306.30 371.00,306.82 371.00,308.71 C371.00,310.66 371.45,311.08 373.25,310.82 C374.73,310.61 375.50,309.81 375.50,308.50 ZM 296.00 229.00 C294.31,229.00 294.01,229.65 294.04,233.25 C294.07,237.40 294.10,237.44 295.45,235.01 C296.20,233.64 296.61,232.18 296.35,231.76 C296.09,231.34 296.36,231.00 296.94,231.00 C297.52,231.00 298.00,230.55 298.00,230.00 C298.00,229.45 297.10,229.00 296.00,229.00 ZM 392.85 322.25 C392.77,319.04 392.51,317.79 392.27,319.42 C391.94,321.62 391.61,322.00 390.93,320.92 C390.27,319.88 390.03,320.25 390.02,322.31 C390.01,323.93 390.42,324.86 391.00,324.50 C391.55,324.16 392.00,324.81 392.00,325.94 C392.00,327.07 392.23,328.00 392.50,328.00 C392.77,328.00 392.93,325.41 392.85,322.25 ZM 479.50 340.00 C479.84,339.45 479.42,339.00 478.56,339.00 C477.70,339.00 477.00,339.45 477.00,340.00 C477.00,340.55 477.42,341.00 477.94,341.00 C478.46,341.00 479.16,340.55 479.50,340.00 ZM 414.12 387.22 C415.94,387.19 417.70,387.15 419.25,387.09 L 429.00 386.77 L 429.00 387.24 ZM 405.34 426.21 L 405.50 434.00 L 417.25 434.00 L 429.00 434.00 L 405.11 434.00 L 405.29 428.75 C405.31,428.08 405.33,427.21 405.34,426.21 ZM 38.92 513.28 C35.53,503.92 32.81,494.52 30.88,485.30 C32.96,494.78 35.65,504.13 38.92,513.28 ZM 26.77 459.63 C26.36,456.24 26.10,453.48 26.07,451.89 L 26.52 457.00 C26.60,457.88 26.68,458.75 26.77,459.63 ZM 28.75 452.85 C29.95,454.14 31.45,455.86 33.05,457.78 L 33.14 457.88 C31.94,456.51 30.91,455.33 30.18,454.49 ZM 524.86 208.54 C524.85,208.53 524.85,208.52 524.84,208.51 C524.54,208.21 514.38,204.97 500.73,200.80 C514.38,204.97 524.54,208.21 524.84,208.50 C524.85,208.51 524.85,208.53 524.86,208.54 ZM 452.70 524.43 C452.28,525.15 451.96,526.07 451.62,527.36 C451.94,526.08 452.26,525.17 452.70,524.43 Z" fill="rgb(27,91,73)"/>
<path d="M 271.69 574.36 C271.31,573.98 271.00,566.09 271.00,556.83 L 271.00 540.00 L 282.00 540.00 L 282.00 481.00 L 276.00 481.00 L 276.00 504.00 L 241.00 504.00 L 241.00 516.00 L 253.00 516.00 L 253.00 551.00 L 218.00 551.00 L 218.00 516.00 L 223.38 516.00 C229.86,516.00 229.97,515.78 229.99,502.27 L 230.00 493.05 L 264.50 492.50 L 265.06 469.00 L 282.00 469.00 L 282.00 411.00 L 265.13 411.00 L 264.82 413.75 C264.57,415.91 263.91,416.57 261.75,416.82 C259.59,417.06 259.00,417.65 259.00,419.57 C259.00,421.60 258.51,422.00 256.00,422.00 L 253.00 422.00 L 253.00 468.96 L 206.50 469.50 L 206.18 472.25 C205.92,474.55 205.39,475.00 202.93,475.00 L 200.00 475.00 L 200.00 516.00 L 153.00 516.00 L 153.00 469.00 L 171.00 469.00 L 171.00 446.00 L 147.22 446.00 L 147.36 451.74 L 147.50 457.48 L 132.00 457.31 C123.47,457.22 115.71,457.11 114.75,457.07 C113.15,457.01 113.00,455.47 113.00,439.48 L 113.00 421.95 L 147.50 422.50 L 147.80 428.25 L 148.10 434.00 L 171.00 434.00 L 171.00 405.00 L 183.00 405.00 L 183.00 387.00 L 148.10 387.00 L 147.80 392.75 L 147.50 398.50 L 113.00 399.05 L 113.00 364.00 L 147.00 364.00 L 147.00 367.92 C147.00,368.19 147.00,368.45 147.00,368.70 C146.99,370.87 146.98,372.30 147.66,373.23 C148.94,375.01 152.69,375.01 163.56,375.00 C164.21,375.00 164.90,375.00 165.61,375.00 L 183.00 375.00 L 183.00 358.00 L 171.00 358.00 L 171.00 329.00 L 148.00 329.00 L 148.00 340.00 L 113.00 340.00 L 113.00 305.00 L 146.90 305.00 L 147.20 310.75 L 147.50 316.50 L 183.00 317.05 L 183.00 352.00 L 193.90 352.00 L 194.20 357.75 L 194.50 363.50 L 218.00 364.06 L 218.00 375.00 L 253.00 375.00 L 253.00 352.00 L 250.00 352.00 C247.35,352.00 247.00,351.66 247.00,349.07 C247.00,346.61 246.55,346.08 244.25,345.82 C242.09,345.57 241.43,344.91 241.18,342.75 L 240.87 340.00 L 206.00 340.00 L 206.00 305.00 L 203.00 305.00 C200.35,305.00 200.00,304.66 200.00,302.07 C200.00,299.61 199.55,299.08 197.25,298.82 C195.09,298.57 194.43,297.91 194.18,295.75 L 193.87 293.00 L 148.00 293.00 L 148.00 247.00 L 194.00 247.00 L 194.00 258.00 L 230.10 258.00 L 229.80 252.30 C229.51,246.72 229.43,246.59 226.50,246.49 C224.85,246.44 222.26,246.30 220.75,246.19 L 218.00 246.00 L 218.00 211.00 L 253.00 211.00 L 253.00 245.90 L 247.25 246.20 L 241.50 246.50 L 241.20 252.25 L 240.90 258.00 L 275.94 258.00 L 276.50 281.50 L 279.25 281.82 L 282.00 282.13 L 282.00 229.00 L 271.00 229.00 L 271.00 194.00 L 305.56 194.00 L 305.80 206.75 C305.93,213.76 305.76,221.64 305.42,224.25 L 304.81 229.00 L 294.00 229.00 L 294.00 282.00 L 300.00 282.00 L 300.00 258.00 L 335.00 258.00 L 335.00 246.00 L 323.00 246.00 L 323.00 211.00 L 358.00 211.00 L 358.00 246.00 L 347.28 246.00 L 346.64 252.15 C346.29,255.53 346.00,260.93 346.00,264.15 L 346.00 270.00 L 311.00 270.00 L 311.00 293.00 L 294.00 293.00 L 294.00 296.17 C293.94,296.22 293.94,296.28 294.00,296.34 L 294.00 346.00 L 317.00 346.00 L 317.00 343.00 C317.00,340.33 317.33,340.00 320.00,340.00 L 320.94 340.00 C321.19,340.05 321.40,340.06 321.59,340.00 L 323.00 340.00 L 323.00 293.00 L 370.00 293.00 L 370.00 290.48 C370.00,288.47 370.62,287.83 373.00,287.35 C375.32,286.89 376.00,286.21 376.00,284.38 C376.00,282.40 376.51,282.00 379.00,282.00 L 382.00 282.00 L 382.00 247.16 L 384.75 246.59 C388.24,245.87 420.26,245.90 425.25,246.63 L 429.00 247.18 L 429.00 293.00 L 405.00 293.00 L 405.00 317.00 L 429.00 317.00 L 429.00 305.00 L 464.00 305.00 L 464.00 333.51 C463.96,334.05 463.91,334.63 463.88,335.25 C463.78,337.10 463.77,338.78 463.85,340.00 L 429.10 340.00 L 428.50 328.50 L 405.00 327.94 L 405.00 356.97 C404.28,357.52 402.84,357.64 399.75,357.80 L 394.00 358.10 L 394.00 359.49 C393.11,360.89 393.02,363.58 393.01,368.75 L 393.00 375.00 L 370.00 375.00 L 370.00 387.00 L 392.92 387.00 L 393.50 404.50 L 399.25 404.80 L 403.92 405.04 C404.62,406.21 405.03,410.91 405.21,419.78 L 405.34 426.21 C405.33,427.21 405.31,428.08 405.29,428.75 L 405.11 434.00 L 429.00 434.00 L 429.00 422.00 L 464.05 422.00 L 463.50 457.50 L 429.50 457.50 L 428.90 446.00 L 394.00 446.00 L 394.00 411.10 L 382.50 410.50 L 381.90 399.00 L 359.10 399.00 L 358.50 387.50 L 341.34 387.23 L 324.17 386.95 L 323.51 394.23 C323.14,398.23 322.99,403.52 323.17,406.00 C323.47,410.07 323.76,410.53 326.25,410.82 C328.41,411.06 329.00,411.65 329.00,413.57 C329.00,415.60 329.49,416.00 332.00,416.00 C334.67,416.00 335.00,416.33 335.00,419.00 L 335.00 422.00 L 370.00 422.00 L 370.00 441.43 C370.00,463.64 370.12,464.00 377.57,464.00 C381.63,464.00 382.00,464.21 382.00,466.50 L 382.00 469.00 L 423.00 469.00 L 423.00 516.00 L 376.00 516.00 L 376.00 504.00 L 347.00 504.00 L 347.00 515.90 L 352.75 516.20 L 358.50 516.50 L 359.05 551.00 L 323.00 551.00 L 323.00 516.00 L 335.00 516.00 L 335.00 503.79 L 325.25 504.12 C319.89,504.30 312.01,504.35 307.75,504.23 L 300.00 504.00 L 300.00 481.00 L 293.97 481.00 L 294.50 539.50 L 300.27 539.80 L 306.05 540.10 L 305.77 557.30 L 305.50 574.50 L 288.94 574.77 C279.83,574.92 272.07,574.74 271.69,574.36 ZM 524.86 208.54 C524.96,208.77 525.06,209.80 525.15,211.46 C525.73,223.36 525.46,268.19 524.73,292.40 C523.68,311.88 521.93,330.74 519.46,349.05 C518.70,352.67 516.29,353.70 511.25,352.57 C508.91,352.05 507.00,351.06 507.00,350.39 C507.00,349.72 506.56,349.02 506.02,348.83 C505.40,348.62 505.76,341.48 506.98,329.50 C509.15,308.19 510.47,285.58 510.86,263.19 L 510.86 263.18 C510.95,258.36 510.99,253.53 510.99,248.70 C510.98,225.39 510.47,219.00 508.62,218.99 C508.00,218.99 494.52,215.01 478.66,210.14 L 449.82 201.29 L 435.60 187.10 L 421.37 172.90 L 414.94 176.55 C411.40,178.56 402.27,183.33 394.66,187.16 L 394.49 187.24 L 394.48 187.24 C383.97,192.51 380.52,193.82 379.21,193.06 C378.27,192.51 377.90,192.05 378.38,192.03 C378.87,192.01 378.20,191.17 376.88,190.16 C373.99,187.93 368.41,185.92 367.53,186.80 C367.18,187.15 367.22,186.59 367.62,185.56 C368.17,184.12 368.00,183.85 366.92,184.42 C366.14,184.84 367.22,183.53 369.31,181.52 C372.54,178.42 373.72,177.90 376.96,178.13 C379.07,178.29 381.50,177.83 382.36,177.11 C383.22,176.40 393.06,170.90 404.21,164.88 L 424.50 153.95 L 457.50 187.74 L 490.84 197.79 C494.28,198.83 497.61,199.84 500.75,200.80 C501.84,201.14 502.90,201.46 503.94,201.78 C515.94,205.47 524.57,208.24 524.84,208.51 C524.85,208.52 524.85,208.53 524.86,208.54 ZM 376.08 475.00 L 373.04 475.00 C370.33,475.00 370.00,474.68 370.00,472.00 L 370.00 469.00 L 323.00 469.00 L 323.00 423.25 L 320.00 422.65 C317.64,422.18 317.00,421.52 317.00,419.59 C317.00,417.81 316.39,417.05 314.75,416.82 C313.14,416.59 312.41,415.72 312.18,413.75 L 311.87 411.00 L 294.00 411.00 L 294.00 469.00 L 312.00 469.00 L 312.00 480.33 C312.00,486.57 312.31,491.97 312.68,492.35 C313.06,492.72 327.34,492.91 344.43,492.76 L 375.50 492.50 ZM 282.00 293.00 L 265.00 293.00 L 265.00 270.00 L 194.00 270.00 L 194.00 276.00 C194.00,281.97 194.01,282.00 196.93,282.00 C199.39,282.00 199.92,282.45 200.18,284.75 C200.43,286.91 201.09,287.57 203.25,287.82 C205.41,288.06 206.00,288.65 206.00,290.57 L 206.00 293.00 L 253.00 293.00 L 253.00 340.00 L 256.00 340.00 C258.67,340.00 259.00,340.33 259.00,343.00 L 259.00 346.00 L 282.00 346.00 ZM 195.00 466.50 C195.00,464.26 195.41,464.00 198.92,464.00 C199.26,464.00 199.58,464.00 199.89,464.00 C201.86,464.02 203.20,464.03 204.10,463.41 C206.01,462.10 206.01,458.00 206.00,445.23 C206.00,444.28 206.00,443.28 206.00,442.24 L 206.00 421.69 L 220.99 422.37 C238.64,423.17 240.77,422.83 241.19,419.16 C241.36,417.68 242.17,416.44 243.00,416.37 C243.82,416.29 245.06,416.18 245.75,416.12 C246.44,416.05 247.00,414.88 247.00,413.50 C247.00,411.39 247.47,411.00 250.00,411.00 L 253.00 411.00 L 253.00 387.00 L 218.00 387.00 L 218.00 399.00 L 194.00 399.00 L 194.00 411.00 L 183.00 411.00 L 183.00 469.00 L 189.00 469.00 C194.73,469.00 195.00,468.89 195.00,466.50 ZM 359.00 369.50 C359.00,365.79 359.41,363.98 360.25,363.95 C360.94,363.92 366.00,363.81 371.50,363.70 L 381.50 363.50 L 382.10 352.00 L 394.03 352.00 L 393.50 293.50 L 382.00 292.90 L 382.00 295.95 C382.00,298.67 381.68,299.00 379.00,299.00 C376.33,299.00 376.00,299.33 376.00,302.00 C376.00,304.67 375.67,305.00 373.00,305.00 L 370.00 305.00 L 370.00 340.00 L 335.00 340.00 L 335.00 343.00 C335.00,343.24 335.00,343.46 334.99,343.66 C334.94,344.40 334.67,345.13 334.29,345.66 C333.85,345.94 333.14,346.00 332.00,346.00 C329.33,346.00 329.00,346.33 329.00,349.00 C329.00,351.49 328.60,352.00 326.62,352.00 C325.33,352.00 324.50,352.41 324.03,353.77 C323.32,355.57 323.37,359.13 323.77,366.05 L 324.28 375.00 L 359.00 375.00 ZM 311.30 390.51 C311.63,385.83 311.63,376.61 311.30,370.01 L 310.69 358.00 L 265.00 358.00 L 265.00 399.00 L 310.70 399.00 ZM 414.12 387.22 L 401.06 387.19 L 394.00 387.00 L 394.00 374.90 L 399.25 375.26 C402.14,375.45 405.10,375.48 405.83,375.31 C406.09,375.25 406.91,375.19 408.11,375.15 C411.06,375.16 414.30,375.15 417.25,375.12 L 429.00 375.00 L 429.00 364.00 L 464.00 364.00 L 464.00 399.00 L 429.00 399.00 L 429.00 386.77 L 419.25 387.09 C417.70,387.15 415.94,387.19 414.12,387.22 ZM 183.06 258.00 L 159.00 258.00 L 159.00 269.33 C159.00,275.57 159.31,280.98 159.70,281.36 C160.08,281.75 165.37,281.94 171.45,281.78 L 182.50 281.50 ZM 417.00 258.00 L 394.00 258.00 L 394.00 282.00 L 417.00 282.00 ZM 189.00 481.00 L 165.00 481.00 L 165.00 504.00 L 189.00 504.00 ZM 358.58 449.00 C358.63,444.33 358.45,439.04 358.20,437.25 L 357.74 434.00 L 335.00 434.00 L 335.00 456.87 L 337.75 457.30 C339.26,457.54 344.55,457.68 349.50,457.62 L 358.50 457.50 ZM 358.75 323.50 C358.92,321.49 358.75,319.25 358.37,317.96 C358.33,315.84 358.27,313.60 358.22,311.75 L 358.00 305.00 L 335.00 305.00 L 335.00 327.89 L 339.25 328.31 C341.59,328.54 346.87,328.67 350.98,328.60 L 358.46 328.47 L 358.46 326.38 C358.56,325.65 358.65,324.71 358.75,323.50 ZM 218.00 434.00 L 218.00 445.33 C218.00,451.57 218.30,456.97 218.67,457.33 C219.03,457.70 224.21,458.00 230.17,458.00 L 241.00 458.00 L 241.00 434.00 ZM 241.00 305.00 L 218.00 305.00 L 218.00 316.33 C218.00,322.57 218.30,327.97 218.67,328.33 C219.03,328.70 224.21,329.00 230.17,329.00 L 241.00 329.00 ZM 411.00 481.00 L 388.00 481.00 L 388.00 504.00 L 411.00 504.00 ZM 450.31 533.27 C450.56,532.21 450.79,531.16 451.01,530.11 C451.23,529.03 451.42,528.13 451.62,527.36 C451.96,526.07 452.28,525.15 452.70,524.43 C453.46,523.14 454.58,522.37 456.70,521.11 C475.19,510.07 487.45,500.59 501.52,486.45 C506.42,481.53 511.12,476.32 515.53,471.00 C501.68,487.87 485.63,502.49 468.24,513.91 C463.70,516.89 460.17,519.50 460.38,519.71 C460.59,519.92 464.75,518.37 469.63,516.26 C480.29,511.65 495.47,502.83 504.51,495.99 C508.14,493.25 511.46,491.00 511.90,491.00 C512.03,491.00 512.44,490.70 513.07,490.15 C506.02,496.94 499.44,502.95 495.16,506.35 C486.61,513.16 473.30,521.79 464.41,526.29 C459.50,528.78 459.38,528.95 458.13,535.22 C456.64,542.70 456.22,543.51 453.31,544.41 C451.66,544.93 450.83,544.55 449.94,542.89 C449.05,541.23 449.11,539.17 450.31,533.27 ZM 54.57 480.62 C68.45,493.89 82.49,504.21 96.00,511.01 C105.61,515.85 118.18,521.11 117.50,520.00 C117.17,519.47 113.66,516.94 109.70,514.39 C101.19,508.90 92.74,502.33 84.69,495.09 C93.73,503.10 103.46,510.42 113.62,516.80 L 124.50 523.63 L 125.47 527.48 L 126.32 530.90 C127.32,534.91 127.90,538.82 127.60,539.60 C127.28,540.43 125.65,541.00 123.58,541.00 C120.40,541.00 120.00,540.67 119.05,537.25 C118.48,535.19 118.01,532.78 118.01,531.90 C118.00,529.76 115.79,527.98 107.50,523.47 C98.11,518.35 87.04,510.93 79.60,504.77 C75.23,501.15 64.70,490.89 54.57,480.62 ZM 183.00 387.00 L 206.00 387.00 L 206.00 375.00 L 196.08 375.00 C190.63,375.00 185.45,375.27 184.58,375.61 C183.41,376.06 183.00,377.61 183.00,381.61 L 183.00 387.00 ZM 282.00 205.00 L 282.00 217.00 L 294.00 217.00 L 294.00 205.00 ZM 136.00 375.00 L 124.00 375.00 L 124.00 387.00 L 136.00 387.00 ZM 294.00 551.00 L 282.00 551.00 L 282.00 563.00 L 294.00 563.00 ZM 452.00 319.00 C452.00,318.82 451.99,318.65 451.98,318.50 L 452.01 317.00 L 440.00 317.00 L 440.00 322.33 C440.00,325.27 440.30,327.97 440.67,328.33 C441.03,328.70 443.67,329.00 446.54,329.00 L 451.74 329.00 L 451.87 323.00 L 451.93 320.51 C452.00,320.21 452.00,319.71 452.00,319.00 ZM 347.10 223.00 L 335.00 223.00 L 335.00 235.10 L 340.75 234.80 L 346.50 234.50 ZM 241.00 528.00 L 228.85 528.00 L 229.10 532.25 C229.49,539.03 230.36,540.00 236.04,540.00 L 241.00 540.00 ZM 241.00 222.90 L 229.50 223.50 L 229.19 227.86 C228.71,234.46 229.19,235.00 235.47,235.00 L 241.00 235.00 ZM 135.80 439.75 L 136.10 434.00 L 124.00 434.00 L 124.00 439.33 C124.00,442.27 124.32,444.99 124.71,445.38 C125.10,445.77 127.69,445.96 130.46,445.79 L 135.50 445.50 ZM 135.80 322.75 L 136.10 317.00 L 124.00 317.00 L 124.00 322.33 C124.00,325.27 124.32,327.99 124.71,328.38 C125.10,328.77 127.69,328.96 130.46,328.79 L 135.50 328.50 ZM 347.10 528.00 L 335.00 528.00 L 335.00 533.42 C335.00,539.56 335.47,539.98 342.00,539.69 L 346.50 539.50 ZM 452.00 434.00 L 441.00 434.00 L 441.00 446.00 L 452.00 446.00 ZM 452.00 376.00 L 441.00 376.00 L 441.00 387.00 L 452.00 387.00 ZM 565.06 214.63 C564.40,198.61 563.56,183.76 563.18,181.64 C564.16,187.16 564.93,203.31 565.30,221.47 C565.23,219.17 565.15,216.89 565.06,214.63 ZM 59.87 469.14 C53.45,461.34 47.73,453.34 43.00,445.51 C46.43,450.99 50.62,456.99 55.80,463.91 C57.12,465.67 58.48,467.41 59.87,469.14 ZM 556.15 368.69 C554.00,383.06 551.59,396.06 549.04,406.93 C551.70,395.11 554.08,382.24 556.15,368.69 ZM 543.08 427.64 C542.03,430.48 540.96,432.91 539.90,434.86 C539.08,436.37 538.24,437.86 537.39,439.34 C539.61,435.29 541.53,431.36 543.08,427.64 ZM 565.50 255.99 C565.43,261.88 565.31,267.39 565.12,272.16 C564.91,277.36 564.65,282.59 564.36,287.80 C564.93,277.14 565.32,266.49 565.50,255.99 ZM 525.96 477.37 C530.69,472.47 535.74,467.12 539.62,462.84 C535.94,467.00 531.13,472.09 525.96,477.37 ZM 36.96 462.21 C35.60,460.67 34.29,459.19 33.14,457.88 L 33.05 457.78 C32.83,457.51 32.61,457.24 32.39,456.98 C34.08,458.85 36.01,461.02 38.05,463.33 C38.46,463.81 38.88,464.28 39.29,464.74 C38.47,463.85 37.68,463.00 36.96,462.21 ZM 546.21 455.18 C548.63,452.28 550.58,450.24 550.78,450.45 C550.79,450.46 550.79,450.46 550.80,450.47 C550.78,450.47 550.75,450.47 550.71,450.49 C550.69,450.51 550.67,450.52 550.64,450.54 C550.11,450.90 548.43,452.66 546.21,455.18 ZM 26.80 459.91 C26.32,456.01 26.02,452.88 26.02,451.42 L 26.07 451.89 C26.10,453.48 26.36,456.24 26.77,459.63 C26.78,459.72 26.79,459.81 26.80,459.91 Z" fill="rgb(45,190,106)"/>
<path d="M 0.00 384.00 L 0.00 0.00 L 288.00 0.00 L 576.00 0.00 L 576.00 384.00 L 576.00 768.00 L 288.00 768.00 L 0.00 768.00 L 0.00 384.00 ZM 303.23 703.89 C365.35,681.62 418.12,654.14 455.50,624.60 C475.73,608.62 500.22,582.64 512.64,564.00 C529.36,538.91 542.44,507.25 547.41,479.84 C549.25,469.69 551.39,451.06 550.78,450.45 C550.54,450.21 547.90,453.04 544.92,456.75 C538.80,464.37 513.12,491.00 511.90,491.00 C511.46,491.00 508.14,493.25 504.51,495.99 C495.47,502.83 480.29,511.65 469.63,516.26 C464.75,518.37 460.59,519.92 460.38,519.71 C460.17,519.50 463.70,516.89 468.24,513.91 C497.13,494.93 522.29,467.17 539.90,434.86 C551.09,414.31 562.34,341.75 565.12,272.16 C566.22,244.59 565.10,192.52 563.18,181.64 C562.38,177.09 567.61,179.06 514.69,163.40 L 478.88 152.80 L 465.70 139.15 C458.45,131.64 447.96,120.82 442.38,115.09 L 432.25 104.68 L 407.22 118.34 C393.45,125.85 381.51,132.00 380.69,132.00 C378.03,132.00 346.88,110.53 331.00,97.74 C322.48,90.88 309.94,80.14 303.14,73.88 C296.34,67.62 290.16,62.06 289.41,61.52 C288.38,60.78 286.57,61.94 282.27,66.10 C273.39,74.66 253.70,91.74 241.50,101.45 C229.85,110.72 198.49,132.00 196.48,132.00 C195.82,132.00 184.11,125.91 170.45,118.46 C156.79,111.02 145.13,105.06 144.53,105.21 C143.94,105.37 133.41,116.07 121.15,129.00 L 98.85 152.50 L 85.17 156.66 C77.65,158.95 58.46,164.72 42.52,169.47 C26.58,174.23 13.47,178.21 13.39,178.31 C12.75,179.10 11.00,229.77 11.01,247.00 C11.04,303.87 19.13,374.70 30.50,417.71 C38.60,448.38 73.61,491.11 109.70,514.39 C113.66,516.94 117.17,519.47 117.50,520.00 C118.18,521.11 105.61,515.85 96.00,511.01 C77.09,501.49 57.15,485.08 38.05,463.33 C31.70,456.10 26.34,450.34 26.14,450.54 C25.43,451.23 28.15,471.70 30.55,483.67 C37.08,516.32 53.58,551.51 75.03,578.50 C107.16,618.93 157.98,654.84 223.89,683.67 C244.18,692.54 285.51,708.78 288.23,708.95 C288.64,708.98 295.39,706.70 303.23,703.89 Z" fill="rgb(230,231,230)"/>
</g>
</svg>